<mxfile host="app.diagrams.net" modified="2021-03-08T16:20:32.879Z" agent="5.0 (Windows NT 10.0; WOW64) AppleWebKit/537.36 (KHTML, like Gecko) Chrome/86.0.4240.198 Safari/537.36" etag="m1ecaiOu9FtCFuwJm_Yy" version="14.4.4" type="github">
  <diagram id="C5RBs43oDa-KdzZeNtuy" name="Page-1">
    <mxGraphModel dx="1887" dy="1098" grid="1" gridSize="10" guides="1" tooltips="1" connect="1" arrows="1" fold="1" page="1" pageScale="1" pageWidth="827" pageHeight="1169" math="0" shadow="0">
      <root>
        <mxCell id="WIyWlLk6GJQsqaUBKTNV-0" />
        <mxCell id="WIyWlLk6GJQsqaUBKTNV-1" parent="WIyWlLk6GJQsqaUBKTNV-0" />
        <mxCell id="t1JHa7jX8BV4lnTSM7T5-11" style="edgeStyle=orthogonalEdgeStyle;rounded=0;orthogonalLoop=1;jettySize=auto;html=1;entryX=0.5;entryY=0;entryDx=0;entryDy=0;" edge="1" parent="WIyWlLk6GJQsqaUBKTNV-1" source="t1JHa7jX8BV4lnTSM7T5-0" target="t1JHa7jX8BV4lnTSM7T5-7">
          <mxGeometry relative="1" as="geometry" />
        </mxCell>
        <mxCell id="t1JHa7jX8BV4lnTSM7T5-0" value="" style="rounded=1;whiteSpace=wrap;html=1;" vertex="1" parent="WIyWlLk6GJQsqaUBKTNV-1">
          <mxGeometry x="-710" y="230" width="420" height="100" as="geometry" />
        </mxCell>
        <mxCell id="t1JHa7jX8BV4lnTSM7T5-1" value="ENCODER" style="rounded=0;whiteSpace=wrap;html=1;" vertex="1" parent="WIyWlLk6GJQsqaUBKTNV-1">
          <mxGeometry x="-700" y="240" width="120" height="30" as="geometry" />
        </mxCell>
        <mxCell id="t1JHa7jX8BV4lnTSM7T5-3" value="CRAFTER" style="rounded=0;whiteSpace=wrap;html=1;" vertex="1" parent="WIyWlLk6GJQsqaUBKTNV-1">
          <mxGeometry x="-570" y="240" width="120" height="30" as="geometry" />
        </mxCell>
        <mxCell id="t1JHa7jX8BV4lnTSM7T5-4" value="INDEXER" style="rounded=0;whiteSpace=wrap;html=1;" vertex="1" parent="WIyWlLk6GJQsqaUBKTNV-1">
          <mxGeometry x="-570" y="285" width="120" height="30" as="geometry" />
        </mxCell>
        <mxCell id="t1JHa7jX8BV4lnTSM7T5-5" value="RANKER" style="rounded=0;whiteSpace=wrap;html=1;" vertex="1" parent="WIyWlLk6GJQsqaUBKTNV-1">
          <mxGeometry x="-700" y="285" width="120" height="30" as="geometry" />
        </mxCell>
        <mxCell id="t1JHa7jX8BV4lnTSM7T5-6" value="EXECUTOR" style="rounded=0;whiteSpace=wrap;html=1;fillColor=#ffe6cc;strokeColor=#d79b00;dashed=1;dashPattern=1 4;" vertex="1" parent="WIyWlLk6GJQsqaUBKTNV-1">
          <mxGeometry x="-430" y="250" width="120" height="60" as="geometry" />
        </mxCell>
        <mxCell id="t1JHa7jX8BV4lnTSM7T5-12" style="edgeStyle=orthogonalEdgeStyle;rounded=0;orthogonalLoop=1;jettySize=auto;html=1;entryX=0.5;entryY=0;entryDx=0;entryDy=0;" edge="1" parent="WIyWlLk6GJQsqaUBKTNV-1" source="t1JHa7jX8BV4lnTSM7T5-7" target="t1JHa7jX8BV4lnTSM7T5-8">
          <mxGeometry relative="1" as="geometry" />
        </mxCell>
        <mxCell id="t1JHa7jX8BV4lnTSM7T5-7" value="DRIVER" style="rounded=0;whiteSpace=wrap;html=1;dashed=1;dashPattern=1 4;fillColor=#ffe6cc;strokeColor=#d79b00;" vertex="1" parent="WIyWlLk6GJQsqaUBKTNV-1">
          <mxGeometry x="-560" y="360" width="120" height="40" as="geometry" />
        </mxCell>
        <mxCell id="t1JHa7jX8BV4lnTSM7T5-13" style="edgeStyle=orthogonalEdgeStyle;rounded=0;orthogonalLoop=1;jettySize=auto;html=1;entryX=0.5;entryY=0;entryDx=0;entryDy=0;" edge="1" parent="WIyWlLk6GJQsqaUBKTNV-1" source="t1JHa7jX8BV4lnTSM7T5-8" target="t1JHa7jX8BV4lnTSM7T5-9">
          <mxGeometry relative="1" as="geometry">
            <mxPoint x="-500" y="510" as="targetPoint" />
          </mxGeometry>
        </mxCell>
        <mxCell id="t1JHa7jX8BV4lnTSM7T5-8" value="PEA" style="rounded=0;whiteSpace=wrap;html=1;dashed=1;dashPattern=1 4;fillColor=#ffe6cc;strokeColor=#d79b00;" vertex="1" parent="WIyWlLk6GJQsqaUBKTNV-1">
          <mxGeometry x="-560" y="430" width="120" height="40" as="geometry" />
        </mxCell>
        <mxCell id="t1JHa7jX8BV4lnTSM7T5-14" style="edgeStyle=orthogonalEdgeStyle;rounded=0;orthogonalLoop=1;jettySize=auto;html=1;exitX=0.5;exitY=1;exitDx=0;exitDy=0;entryX=0.5;entryY=0;entryDx=0;entryDy=0;" edge="1" parent="WIyWlLk6GJQsqaUBKTNV-1" source="t1JHa7jX8BV4lnTSM7T5-9" target="t1JHa7jX8BV4lnTSM7T5-10">
          <mxGeometry relative="1" as="geometry" />
        </mxCell>
        <mxCell id="t1JHa7jX8BV4lnTSM7T5-9" value="POD" style="rounded=0;whiteSpace=wrap;html=1;dashed=1;dashPattern=1 4;fillColor=#ffe6cc;strokeColor=#d79b00;" vertex="1" parent="WIyWlLk6GJQsqaUBKTNV-1">
          <mxGeometry x="-560" y="500" width="120" height="40" as="geometry" />
        </mxCell>
        <mxCell id="t1JHa7jX8BV4lnTSM7T5-10" value="FLOW" style="rounded=0;whiteSpace=wrap;html=1;dashed=1;dashPattern=1 4;fillColor=#ffe6cc;strokeColor=#d79b00;" vertex="1" parent="WIyWlLk6GJQsqaUBKTNV-1">
          <mxGeometry x="-560" y="565" width="120" height="40" as="geometry" />
        </mxCell>
      </root>
    </mxGraphModel>
  </diagram>
</mxfile>
